<svg xmlns="http://www.w3.org/2000/svg" viewBox="0 0 281 269"><defs><style>.cls-1{fill:#22eae0;}</style></defs><title>icon5</title><g id="graphic-8" data-name="graphic"><path class="cls-1" d="M204,239.5H77A41.55,41.55,0,0,1,35.5,198V71A41.55,41.55,0,0,1,77,29.5H204A41.55,41.55,0,0,1,245.5,71V198A41.55,41.55,0,0,1,204,239.5ZM77,44.5A26.53,26.53,0,0,0,50.5,71V198A26.53,26.53,0,0,0,77,224.5H204A26.53,26.53,0,0,0,230.5,198V71A26.53,26.53,0,0,0,204,44.5Z"/><path class="cls-1" d="M207,118.09c-4.56-4.7-8.27-7.41-12.26-7.84s-13.12,1.57-24.67,1.14c-6.3-.23-14.31-1.27-26.44-.56a115.39,115.39,0,0,1,.75-13.77c4.73,0,14.29,0,19.85-.89,7.59-1.18,5.66-2.57,4.81-4.07s-12-8.66-16.37-4.95a16.77,16.77,0,0,1-7.65,3.48c1-9.24,2.18-18.49,2.52-21.45.71-6.27-8.41-5.7-12.73-7.13s-16.64-5-7,1.43c8.09,5.35,6.51,37.67,5.76,48.26-4.34.53-9.12,1.28-14.4,2.32,2.44-4.59,8-15.63,5.75-17.85-2.78-2.82-15.18-5.58-19.35-4.63s4.6,2.85,6.31,5.48c1.42,2.2-1.61,15-2.66,19.17-1.92.46-3.89.94-5.93,1.47-29.92,7.8-20.68,5.81-29.66,3.39s-.43,6.13,4,11.55,6.56,1.57,11.83-.86a169.29,169.29,0,0,1,38.85-12.22,5,5,0,0,1,2.51,1.63c1.92,2.78,4.28,6.64,3.53,24s-.75,14.33-2,14.22-11.44-1.75-13-2.64-.1,4.12,9.94,11a13,13,0,0,0,5.48,2.58c-6.53,7.85-18.69,21.67-28.68,28.43-11.23,7.6-17.38,7.06-14.55,8.13,8,3,16,5.48,32.23-8.2S172,148.47,169,142.9s-10-11-11.12-10.69,1.92,9-5.88,18.61c-5.4,6.65-7.49,11-7,6.84s3.53-26.52,1.29-29.19-5.35-4.92-10.48-6.63c-3.68-1.23-4.28-2-3.74-2.92,3.79-.6,7.73-1.09,11.79-1.4,28.38-2.16,49.77,6.3,63.17,7.36C213.6,125.4,211.6,122.8,207,118.09Z"/><path class="cls-1" d="M169.39,127.61c-5.67-1.5-14.44-3.39-10,0,6.31,4.89,18.18,17.54,21.49,21.39s9.52,5.24,7.27-4.49S175.06,129.11,169.39,127.61Z"/><path class="cls-1" d="M104.68,150.82c2.46-11.34,1.5-18.18,1.5-18.18-.32-2.78-2.46,2-3.42,4.7s-7.7,9.74-9.41,10.38,1,15.4,2.89,17S102.23,162.16,104.68,150.82Z"/></g></svg>