<svg xmlns="http://www.w3.org/2000/svg" viewBox="0 0 281 269"><defs><style>.cls-1{fill:#22eae0;}</style></defs><title>icon7</title><g id="graphic-6" data-name="graphic">
<path class="cls-1" d="M204,239.5H77A41.55,41.55,0,0,1,35.5,198V71A41.55,41.55,0,0,1,77,29.5H204A41.55,41.55,0,0,1,245.5,71V198A41.55,41.55,0,0,1,204,239.5ZM77,44.5A26.53,26.53,0,0,0,50.5,71V198A26.53,26.53,0,0,0,77,224.5H204A26.53,26.53,0,0,0,230.5,198V71A26.53,26.53,0,0,0,204,44.5Z"/>
<path class="cls-1" d="M176.83,81.9c.45-.76,2.15-1.11,5.43-1,6.6.18,4.21-2.47,3.07-2.12s-22.76-6.88-27.09-.52-8.42,6.7-13.54,11.11-24.59,29.82-25.84,28.76,1.25-10.58,3.75-8.82,1.48-2.12,2.74-5.29,11.26-7.77,9.9-9-7.51,1.41-8.31-.18,9.9-6,9.9-7.23-7.51-1.06-18.1,2.47-22.31,19.41-27,27.7c-2.58,4.57-2.08,1.29-3.76,2.28-.9.78-.9,4.33-2.05,7.43-2.16,5.82.11,4.76,5.12-2.65s23.22-21.35,12.87,2.65-1.26,3.7,22.76-11.83,31.87-10.94,22-4.76-12,12.88-12,12.88,2.91,9.67,27.18-15.93c.53-.88,2.64-15.65,8.45-15.65s10.36-3.53,6.71-6.71C177.24,83.87,176.39,82.67,176.83,81.9Z"/><path class="cls-1" d="M198.17,121.09c-7.71.81-21.5,10.59-17.47,3.88s13.1-20.64-12-9.7c10.64-9.71,30.12-13.84,34-12.66a70.43,70.43,0,0,0,8.73,1.89s2.36,2.47-2,2.65-13.32,7.59-12.09,9.18,5.41-3.45,5.48-.53C202.92,117.74,199.89,120.91,198.17,121.09Z"/>
<path class="cls-1" d="M74.91,162c9.43-14.09,13.8-17.27,11.76-7.71s-.49,15.83,7.58,7.87,18.57-18.66,20.9-19.46c3.6-1.23-9.28,17.81-12.05,21.3s-13,11-26,31.56c-14.36,22.63-6.91-17.47,1.94-30,5.8-8.24-.19-5.52-1-2.91S65.48,176.06,74.91,162Z"/><path class="cls-1" d="M111.86,169.65c-.42.91.45,6.86,8.33,3.43s1.59,2.45,10.95,1.64,14.71-14.38,16.65-16.67,14.37-10.78,2.51,4.25-10.61,25.65-7.76,20.42,11.87-14.38,11.87-14.38-1.6.66-8.1,14.71,23.38-13.56,27.49-14.38,11.52,2.29,15.17-.33,16.77-10.94,4-10.13-17,7.68-25.21,7,7.65-15.68,5.94-17.41-16,6.63-19.4,3.69,4.79-8.66,10-12.91-8.78-5.07-21.9,3.59-14.77,10.69-21.63,16.72C116.8,162.44,112.89,167.44,111.86,169.65Z"/>
<path class="cls-1" d="M82.45,124.55C86.12,129.69,74,149,77.89,147.1s15.79-17.67,17.78-21.94c4.11-8.8,5.34,1.89,1.65,12.3s-6.72,18.17.44,11.29,19.88-24.89,33.93-27.88S121.16,131.1,111.31,141,94.52,161.63,91.38,155.1s5.71-21.7,4.82-23.82-24.33,31.38-25.32,26.9S78.78,119.41,82.45,124.55Z"/>
<path class="cls-1" d="M110.32,157.58S136.39,124.82,169,118c14.05-3,10.3,1,5.45,10.84s-2.18,6.7,4.24,3.94,18.06-9.65,17.81-5.12,2.79,3.66-8.48,14.54-7.39,10.1,3.76,6.94,16.72-9.74,17.21-6.94-33,19.55-34.29,15,13.81-19.69,15.5-22.85-23.82,15.32-27,12.75,14.74-24.16,12.07-26.24-19.18-2.34-58.53,33.79C109.66,161.13,109,161.32,110.32,157.58Z"/></g></svg>