<svg xmlns="http://www.w3.org/2000/svg" viewBox="0 0 281 269"><defs><style>.cls-1{fill:#ff7bac;}</style></defs><title>icon14</title><g id="graphic-14" data-name="graphic"><path class="cls-1" d="M204,239.5H77A41.55,41.55,0,0,1,35.5,198V71A41.55,41.55,0,0,1,77,29.5H204A41.55,41.55,0,0,1,245.5,71V198A41.55,41.55,0,0,1,204,239.5ZM77,44.5A26.53,26.53,0,0,0,50.5,71V198A26.53,26.53,0,0,0,77,224.5H204A26.53,26.53,0,0,0,230.5,198V71A26.53,26.53,0,0,0,204,44.5Z"/><path class="cls-1" d="M180.68,218c-4.53,0-11.17-.9-13.13-7-1.52-4.75.87-9.52,6.94-13.89-1.67-2.86-4-6.47-7.12-11a82.32,82.32,0,0,1-26.82,8.35c-23.72,3.1-43.75-3.69-51-17.3-4.66-8.68-6.2-23.62,12.86-45.48a138.28,138.28,0,0,0,10.09-12.95c-8-8.93-14.35-15.74-17.34-18.71-15.19-15-6.29-36.6.54-45.9l3-4.08,4.91,1.26c1.06.28,26.17,7,33,28.87,3.39,10.94,1.52,23.27-5.57,36.84,4.29,4.88,8.83,10.14,13.42,15.57,13.34-5.13,29.34-6.64,39.61-1.23,8.64,4.55,12.18,13.15,9.72,23.61a43.51,43.51,0,0,1-13.95,22.72c1.21,1.75,2.34,3.42,3.4,5,9.5,14.49,12.31,22.48,10,28.52a10.47,10.47,0,0,1-9.54,6.69C182.89,217.93,181.86,218,180.68,218Zm-58-87.74q-4,5.52-9,11.25c-10.48,12-14.37,22.15-10.94,28.54,4.12,7.69,19.21,11.68,35.88,9.5a68.5,68.5,0,0,0,19.84-5.7c-4.41-5.82-9.76-12.61-16.27-20.53l-1.71-2.08a22.84,22.84,0,0,0-3.82,3.29c-3.18,3.5-2.07,5.18-1.27,6.4a7.5,7.5,0,0,1-12.55,8.23c-5.25-8-4.26-17,2.72-24.71a35.4,35.4,0,0,1,5.29-4.69C128.06,136.5,125.32,133.31,122.66,130.25Zm32,14.59,1.5,1.85q8.28,10.16,14.79,18.78a28.69,28.69,0,0,0,8.19-14c1.21-5.14-.78-6.19-2.1-6.89C172.1,142,163.14,142.45,154.64,144.84ZM104.94,67.7c-2.82,5.63-5.88,15.07.74,21.63,2.73,2.71,7.91,8.22,14.45,15.45,3.13-7.68,3.85-14.48,2.08-20.2C119.39,75.49,110.63,70.24,104.94,67.7Z"/></g></svg>