<svg xmlns="http://www.w3.org/2000/svg" viewBox="0 0 281 269"><defs><style>.cls-1{fill:#22eae0;}</style></defs><title>icon8</title><g id="graphic-5" data-name="graphic">
<path class="cls-1" d="M204,239.5H77A41.55,41.55,0,0,1,35.5,198V71A41.55,41.55,0,0,1,77,29.5H204A41.55,41.55,0,0,1,245.5,71V198A41.55,41.55,0,0,1,204,239.5ZM77,44.5A26.53,26.53,0,0,0,50.5,71V198A26.53,26.53,0,0,0,77,224.5H204A26.53,26.53,0,0,0,230.5,198V71A26.53,26.53,0,0,0,204,44.5Z"/><path class="cls-1" d="M171.18,121.63c-20.46-.18-40.93-.22-61.4,0-12.86.15-22.18,12.7-19.19,25.22,2.27,9.47,10.35,15.78,20.53,15.86,9.78.07,48.89,0,58.67,0,.17,0,.33,0,.5,0,11.85-.29,20.67-9.1,20.68-20.65C191,131,182.23,121.72,171.18,121.63Zm-63.39,23.92c2.09,1.14,2.25,2.52,2.2,4.48-.11,3.8-.33,4-3.8,2.44-4.41-2-6.85-5.54-6.86-10.34s2.34-8.19,6.62-10.25c3.52-1.7,4-1.39,4,2.87.22,1.44,0,2.8-2.1,3.89C105.34,139.92,105.31,144.18,107.79,145.55Zm54.08,6c0,1.56-.44,1.94-1.94,1.92-6.46-.08-32.12-.09-38.49,0-1.65,0-2.29-.29-2.25-2.12q.18-9.3,0-18.62c0-1.68.49-2,2.08-2q19.24.09,38.49,0c1.5,0,2.15.23,2.12,2C161.76,139,161.78,145.29,161.87,151.57Zm13.47.73c-3.62,1.91-4.23,1.51-4.23-2.89-.25-1.39,0-2.64,1.95-3.66,2.61-1.34,2.78-5.7.23-7.08-2.17-1.17-2.24-2.58-2.2-4.51.08-3.58.58-3.94,3.91-2.35,4.25,2,6.66,5.45,6.74,10.13S179.48,150.12,175.34,152.3Z"/><path class="cls-1" d="M70.88,89.77v89.46a2,2,0,0,0,2,2H208.12a2,2,0,0,0,2-2V89.77a2,2,0,0,0-2-2H72.88A2,2,0,0,0,70.88,89.77ZM198.8,171.91H82.19a2,2,0,0,1-2-2V114.33a2,2,0,0,1,2-2H198.8a2,2,0,0,1,2,2v55.58A2,2,0,0,1,198.8,171.91Zm0-68.81H82.37a2,2,0,0,1-2-2v-2a2,2,0,0,1,2-2H198.81a2,2,0,0,1,2,2v2A2,2,0,0,1,198.81,103.1Z"/></g></svg>