<svg xmlns="http://www.w3.org/2000/svg" viewBox="0 0 281 269"><defs><style>.cls-1{fill:#22eae0;}</style></defs><title>icon12</title><g id="graphic">
	<path class="cls-1" d="M165.48,161.16c-9,14.91-18,29.8-27,44.75-1.49,2.5-3.54,3.51-6.78,2.88A186.73,186.73,0,0,1,103,200.3c-1.47-.54-2.18-1.71-3.19-2.64C94.49,192.84,89.26,188,84,183.19c-4.15-3.75-4.18-7.86,0-10.6,3.24-2.1,6.46-4.21,9.72-6.29A10,10,0,0,0,97,162.83q12.81-21.63,25.69-43.22a16.13,16.13,0,0,0,1.83-7.43,47,47,0,0,1,9.18-25.58c1.34-1.81,2.3-3.89,3.57-5.76,2-3,4.13-3.47,7.87-1.9,6.9,2.9,13.78,5.86,20.66,8.81a18.84,18.84,0,0,1,2.62,1.31c4.25,2.69,3.87,2.41,6.78-.86,10-11.19,11.42-14,19.41-26.51.92-1.44,2.19-2.29,4.08-1.09s1.77,2.67.84,4.14c-4.62,7.32-3.14,4.64-7.83,11.93A35.81,35.81,0,0,0,187,86.31c-1.07,3.81-3.25,7-5.41,10.2-1,1.47-.8,2.53.64,3.81,2.59,2.3,5.14,4.64,7.7,7,3.94,3.61,4.21,4.79,1.89,8.73q-11,18.62-22,37.2C168.29,155.82,165.38,161.09,165.48,161.16Zm-20.08-25c.84-1.21,1.46-2.31-.62-3.6s-2.94-.63-3.83.9-1.25,2.55.93,3.8S144.71,137.56,145.4,136.16ZM139.53,146c1-1,.9-2.14-1-3.37-2.1-1.37-2.73-.27-3.58,1s-1,2.51.82,3.71C137.84,148.69,138.65,147.7,139.53,146Zm-6.42,10.78c1.22-1.35,1.17-2.55-1-3.91-1.95-1.25-2.48-.33-3.28.85-1,1.54-1.25,2.74.92,4.09C131.71,159,132.43,158.22,133.11,156.79Zm-1.87-15.69c1-1.24,1.06-2.35-.87-3.54s-2.51,0-3.27,1.09c-.92,1.33-1.2,2.38.84,3.59S130.55,142.41,131.24,141.1Zm5.88-9.82c.88-1.23,1.65-2.36-.5-3.65-1.79-1.08-2.63-.61-3.36.82-.65,1.26-1.71,2.29.53,3.61C135.58,133.11,136.52,132.76,137.12,131.28Zm-11.76,19.66c1.45-1.27.55-2.37-1.24-3.49-2.13-1.34-2.4.31-3.15,1.27-1.14,1.43-.64,2.54,1.06,3.63C124,153.63,124.59,152.4,125.36,150.94Zm4.06-24.63c.92-1.16,1.17-2.2-.7-3.34s-2.57-.24-3.3,1-1.22,2.2.71,3.37S128.77,127.65,129.42,126.31Zm-6,10c.84-1.13,1.49-2.21-.63-3.49-1.91-1.15-2.51-.29-3.29.93-.88,1.37-1.11,2.42.85,3.58C122.11,138.42,122.76,137.61,123.39,136.34Zm-5.57,9.43c.88-1.06,1-2.15-1-3.34-1.83-1.1-2.33-.18-3.1.88-1.07,1.49-1,2.69,1,3.87S117,147,117.82,145.77Z"/></g><g id="graphic-3" data-name="graphic">
	<path class="cls-1" d="M204,239.5H77A41.55,41.55,0,0,1,35.5,198V71A41.55,41.55,0,0,1,77,29.5H204A41.55,41.55,0,0,1,245.5,71V198A41.55,41.55,0,0,1,204,239.5ZM77,44.5A26.53,26.53,0,0,0,50.5,71V198A26.53,26.53,0,0,0,77,224.5H204A26.53,26.53,0,0,0,230.5,198V71A26.53,26.53,0,0,0,204,44.5Z"/></g></svg>