<svg xmlns="http://www.w3.org/2000/svg" viewBox="0 0 281 269"><defs><style>.cls-1{fill:#22eae0;}</style></defs><title>icon3</title><g id="graphic-10" data-name="graphic"><path class="cls-1" d="M204,239.5H77A41.55,41.55,0,0,1,35.5,198V71A41.55,41.55,0,0,1,77,29.5H204A41.55,41.55,0,0,1,245.5,71V198A41.55,41.55,0,0,1,204,239.5ZM77,44.5A26.53,26.53,0,0,0,50.5,71V198A26.53,26.53,0,0,0,77,224.5H204A26.53,26.53,0,0,0,230.5,198V71A26.53,26.53,0,0,0,204,44.5Z"/><path class="cls-1" d="M83.9,175.43a67.15,67.15,0,0,0,5.71,7.48H191.39a67.15,67.15,0,0,0,5.71-7.48Z"/><path class="cls-1" d="M76.32,159.88a68.58,68.58,0,0,0,3,7.47H201.66a68.58,68.58,0,0,0,3-7.47Z"/><path class="cls-1" d="M98,191a68,68,0,0,0,11.49,7.48h62A68,68,0,0,0,183,191Z"/><path class="cls-1" d="M73.06,144.32a70.88,70.88,0,0,0,1.07,7.48H206.87a70.88,70.88,0,0,0,1.07-7.48Z"/><path class="cls-1" d="M208.17,136.24a67.7,67.7,0,0,0-135.34,0Z"/></g></svg>