<svg xmlns="http://www.w3.org/2000/svg" viewBox="0 0 281 269"><defs><style>.cls-1{fill:#22eae0;}</style></defs><title>icon2</title><g id="graphic-11" data-name="graphic"><path class="cls-1" d="M204,239.5H77A41.55,41.55,0,0,1,35.5,198V71A41.55,41.55,0,0,1,77,29.5H204A41.55,41.55,0,0,1,245.5,71V198A41.55,41.55,0,0,1,204,239.5ZM77,44.5A26.53,26.53,0,0,0,50.5,71V198A26.53,26.53,0,0,0,77,224.5H204A26.53,26.53,0,0,0,230.5,198V71A26.53,26.53,0,0,0,204,44.5Z"/><path class="cls-1" d="M87.57,129c-4.34,2.45-8.67,5-13,7.33-2.82,1.55-5.54,1.35-6.93-2.62-1.32-3.76-.07-6.53,2.72-8.69,16.55-12.8,32.38-9.94,47.77,3.39,17.74,15.36,26.89,15.59,44.71.16,15-13,30.38-16.1,46.71-4.3,3.06,2.21,5.63,4.57,3.76,9.54-2,5.26-5.41,3.68-8.13,1.53-13.28-10.46-25.54-6.77-37.33,4.07-18.26,16.82-36.43,16.88-54.68,0-5-4.61-10.68-7.5-16.35-10.35A10.79,10.79,0,0,0,87.57,129Z"/><path class="cls-1" d="M85.62,161.43c13.13-2.31,24.43,3,34.89,12.71,13.34,12.42,26.79,12.06,40.25-.18a59.54,59.54,0,0,1,12.39-9c12.7-6.55,25.19-5.81,37.14,3.34,2.82,2.16,4.83,4.94,2.92,9.25-1.66,3.74-4.72,3.84-7.16,1.88-14.5-11.64-27.43-6.48-40.28,5.1-17.24,15.55-34.62,14.69-51.7-.93-12.15-11.1-24.77-15.51-38.52-4.51-2.71,2.16-6,2.59-7.75-1.46-2-4.62.21-7.62,3.41-9.71C75.86,164.92,80.59,162.14,85.62,161.43Z"/><path class="cls-1" d="M135,107.89c-7.68-.92-14.35-5.27-20.48-10.84C101.92,85.58,89,80.83,74.92,92.58c-3,2.55-5.86,1.68-7.34-2.48-1.53-4.33.52-6.95,3.45-9,15.6-11.12,30.7-9.51,45.46,2.61,2.68,2.2,5.32,4.46,8,6.58,11.51,9,23,8.15,33.78-1.57,8.34-7.5,17.31-12.85,27.18-15s18.57,2.86,26.75,9.32c2.19,1.72,2.14,5,.87,7.88-1.16,2.65-3,3.34-5.23,2.72A5.34,5.34,0,0,1,206,92.53c-14.13-11.67-27.05-7-39.65,4.54-5.75,5.24-10.89,8.74-17.93,10.62A42,42,0,0,1,135,107.89Z"/></g></svg>