<svg xmlns="http://www.w3.org/2000/svg" viewBox="0 0 281 269"><defs><style>.cls-1{fill:#22eae0;}</style></defs><title>icon9</title><g id="graphic-4" data-name="graphic">
<path class="cls-1" d="M204,239.5H77A41.55,41.55,0,0,1,35.5,198V71A41.55,41.55,0,0,1,77,29.5H204A41.55,41.55,0,0,1,245.5,71V198A41.55,41.55,0,0,1,204,239.5ZM77,44.5A26.53,26.53,0,0,0,50.5,71V198A26.53,26.53,0,0,0,77,224.5H204A26.53,26.53,0,0,0,230.5,198V71A26.53,26.53,0,0,0,204,44.5Z"/>
<path class="cls-1" d="M185,62.24H96a6.64,6.64,0,0,0-6.63,6.64V200.12A6.64,6.64,0,0,0,96,206.76H162.1a29.52,29.52,0,0,0,29.51-29.52V68.88A6.64,6.64,0,0,0,185,62.24ZM102.49,83.3a5.83,5.83,0,0,1,5.84-5.84h64.28a5.84,5.84,0,0,1,5.85,5.84v36a5.85,5.85,0,0,1-5.85,5.84H108.33a5.84,5.84,0,0,1-5.84-5.84Zm31,86.44a2.79,2.79,0,0,1-2.78,2.78H127a2.78,2.78,0,0,0-2.78,2.77V179a2.77,2.77,0,0,1-2.77,2.78h-9.37a2.77,2.77,0,0,1-2.77-2.78v-3.67a2.77,2.77,0,0,0-2.78-2.77h-3.67a2.78,2.78,0,0,1-2.77-2.78v-9.36a2.77,2.77,0,0,1,2.77-2.78h3.67a2.77,2.77,0,0,0,2.78-2.77v-3.68a2.77,2.77,0,0,1,2.77-2.77h9.37a2.77,2.77,0,0,1,2.77,2.77v3.68A2.78,2.78,0,0,0,127,157.6h3.67a2.78,2.78,0,0,1,2.78,2.78Zm23.38,14.88a7.26,7.26,0,1,1,7.26-7.25A7.25,7.25,0,0,1,156.86,184.62Zm14.36-23.89a7.26,7.26,0,1,1,7.25-7.25A7.25,7.25,0,0,1,171.22,160.73Z"/></g></svg>