<svg xmlns="http://www.w3.org/2000/svg" viewBox="0 0 281 269"><defs><style>.cls-1{fill:#22eae0;}</style></defs><title>icon6</title><g id="graphic-7" data-name="graphic"><path class="cls-1" d="M204,239.5H77A41.55,41.55,0,0,1,35.5,198V71A41.55,41.55,0,0,1,77,29.5H204A41.55,41.55,0,0,1,245.5,71V198A41.55,41.55,0,0,1,204,239.5ZM77,44.5A26.53,26.53,0,0,0,50.5,71V198A26.53,26.53,0,0,0,77,224.5H204A26.53,26.53,0,0,0,230.5,198V71A26.53,26.53,0,0,0,204,44.5Z"/><path class="cls-1" d="M203,134.36a49.6,49.6,0,0,0-.51-8.27,51.89,51.89,0,0,0-5.91-17A55,55,0,0,0,182.62,93a85.16,85.16,0,0,0-8.35-5.74c-1.21-.75-1.19-.73,0-1.55a12.7,12.7,0,0,1,2.42-1.14c3.94-1.54,8-2.62,12.25-2,3.56.49,6.46,2.54,7.29,6.51a19.31,19.31,0,0,1-.43,8.69,3.82,3.82,0,0,0,.67,3.65c.28.34.5.73.76,1.1s.73,1,1.44.94.91-.76,1.08-1.35c1.31-4.72,2.33-9.45,1.68-14.43-.86-6.54-4.4-10.89-10.49-13.19-5.43-2-11-2-16.73-1.37a74.27,74.27,0,0,0-22.41,6.5,5.82,5.82,0,0,1-2.71.62,39.67,39.67,0,0,0-6.45.32,65.91,65.91,0,0,0-17.18,4,56.12,56.12,0,0,0-31.43,30.11,58.71,58.71,0,0,0-2.73,7.7c-.14.5-.3,1.14.29,1.43s1-.21,1.3-.64a73.17,73.17,0,0,1,9.63-10.66A67.24,67.24,0,0,1,111,106a64.87,64.87,0,0,1,7.19-3.78,49.38,49.38,0,0,0-4.58,4,138.94,138.94,0,0,0-11.17,12.1,130.92,130.92,0,0,0-14,21,105.62,105.62,0,0,0-7,15.71A58.26,58.26,0,0,0,78.32,167c-.2,1.73-.14,3.48-.41,5.2v6.6a16.89,16.89,0,0,1,.23,3,14.84,14.84,0,0,0,4.68,10.06c3.81,3.71,8.67,4.68,13.77,4.53a45.86,45.86,0,0,0,12.1-2.21,55.25,55.25,0,0,0,6.09-2.19c1.25-.55,1.31-1.35.19-2.14-.66-.48-1.38-.85-2.08-1.28a3.19,3.19,0,0,0-2.81-.3,44.92,44.92,0,0,1-8.58,1.84,17.86,17.86,0,0,1-8.43-.66,7.1,7.1,0,0,1-4.55-4.76,12.62,12.62,0,0,1-.29-5.92,28.66,28.66,0,0,1,6.63-14.07c.78-.9,1.16-.84,1.72.18A58.67,58.67,0,0,0,108,179.49,53.34,53.34,0,0,0,149.37,194a74.45,74.45,0,0,0,14.32-2.28,55.36,55.36,0,0,0,26.75-16,57.61,57.61,0,0,0,11.38-18.64c.67-1.75.28-2.35-1.59-2.36-9.81,0-19.63,0-29.45,0a2.67,2.67,0,0,0-2.56,1.51,21.57,21.57,0,0,1-3.67,4.86c-6.61,6.37-14.63,8-23.19,5.78-9.87-2.59-15.28-9.72-17.35-19.5-.52-2.46-.39-2.53,2.16-2.53h73.7l1.95,0a1.29,1.29,0,0,0,1.27-.78V136.7A9.18,9.18,0,0,1,203,134.36ZM169.1,128c-7.41,0-14.83,0-22.24,0s-14.84,0-22.25,0c-.93,0-1.17-.19-1-1.15a23.15,23.15,0,0,1,9.74-15.89,23.68,23.68,0,0,1,33.92,6.83,23.1,23.1,0,0,1,3.07,8.94C170.46,127.77,170.11,128,169.1,128Z"/></g></svg>