<svg xmlns="http://www.w3.org/2000/svg" viewBox="0 0 281 269"><defs><style>.cls-1{fill:#22eae0;}</style></defs><title>icon4</title><g id="graphic-9" data-name="graphic"><path class="cls-1" d="M204,239.5H77A41.55,41.55,0,0,1,35.5,198V71A41.55,41.55,0,0,1,77,29.5H204A41.55,41.55,0,0,1,245.5,71V198A41.55,41.55,0,0,1,204,239.5ZM77,44.5A26.53,26.53,0,0,0,50.5,71V198A26.53,26.53,0,0,0,77,224.5H204A26.53,26.53,0,0,0,230.5,198V71A26.53,26.53,0,0,0,204,44.5Z"/><path class="cls-1" d="M137,103,85.24,138.52c-.64-9.42,5.34-28.13,24.41-39.16-6.84.51-12.92,1-19,1.42s-12.16,1-18.24,1.48c-.27-1,.49-1.47.92-2.05a46.83,46.83,0,0,1,63.39-12.06c1.92,1.21,2.3.43,3.13-1a47,47,0,0,1,60.49-19.28c.26.12.49.28,1.22.71l-19.64,9.64L162.08,88c20.67-.71,35.89,7.51,46.58,25.63l-60.44-10.85a186.68,186.68,0,0,1,17.66,44.15c4.75,18.07,7.46,36.41,6.8,55.17-.09,2.62-.83,3.46-3.5,3.35-5.33-.22-10.67-.14-16,0-1.94,0-2.55-.19-2.36-2.48,2.85-33.6-1.11-66.31-13.07-97.94C137.55,104.46,137.31,103.93,137,103Z"/></g></svg>