<svg xmlns="http://www.w3.org/2000/svg" viewBox="0 0 281 269"><defs><style>.cls-1{fill:#22eae0;}</style></defs><title>icon11</title><g id="graphic-2" data-name="graphic">
	<path class="cls-1" d="M225.2,131.41c.32-3.39-4.38-.47-3.9-4.16a17.88,17.88,0,0,0-.47-3.63c-1.93-9.65-6.94-17.43-19.2-18-16.59-.84-33.15-2.34-49.79-2.19-23.83-.76-47.52,1.8-71.25,3.56-5.27.36-10.27,1.39-14.06,5.45s-5.36,8.91-6.07,14.22c-.1.74.34,1.84-1.11,1.95-1.18.1-2.87-.85-3.36,1-1.37,10,3.94,1.25,4.41,8.89,7.06,43.42,55.74,29.2,69.55-2.15,2.82-5.28,4.38-10.89,1.66-16.79a1.31,1.31,0,0,1,.62-1.93c2.65-2.83,18.64-4,16.9,1.67-3.27,7.75,1.48,15.82,5.78,22,10.27,16,30.94,29,50,20.54,16.73-7,13.8-27.26,18.78-25.63C226.15,136.43,224.85,132.88,225.2,131.41ZM68,133.44c.94-3.27,12.18-13,16.51-14.93L85,119ZM70.85,143c4.76-4.45,9.62-8.78,15.27-12.13A87.55,87.55,0,0,1,70.85,143Zm80.66-28.21c-.71.93-1.17.77-2.09.34-6-2.82-12-2.75-17.77.63-1.47.87-2,.77-3-.51a23.68,23.68,0,0,0-13.07-8.78,343.21,343.21,0,0,1,47.47-1A29.39,29.39,0,0,0,151.51,114.76Zm7.08,11.85a54.53,54.53,0,0,1,14.54-10.76c.14.18.28.36.41.55l-14.4,10.9ZM162,140.53a52.67,52.67,0,0,1,15.15-10.87C172.35,133.67,166.77,136.56,162,140.53Z"/></g><g id="graphic-8" data-name="graphic">
	<path class="cls-1" d="M204,239.5H77A41.55,41.55,0,0,1,35.5,198V71A41.55,41.55,0,0,1,77,29.5H204A41.55,41.55,0,0,1,245.5,71V198A41.55,41.55,0,0,1,204,239.5ZM77,44.5A26.53,26.53,0,0,0,50.5,71V198A26.53,26.53,0,0,0,77,224.5H204A26.53,26.53,0,0,0,230.5,198V71A26.53,26.53,0,0,0,204,44.5Z"/></g></svg>